# xmcd
# 
# Track frame offsets:
#     150
#     17941
#     36383
#     52431
#     77295
#     93237
#     106642
#     124090
# 
# Disc length: 1925
# 
# Revision: 0
# Processed by: cddbd v1.5.2PL0 Copyright (c) Steve Scherf et al.
# Submitted via: fre:ac v1.0.31
# 
DISCID=5f078308
DTITLE=打首獄門同好会 - 獄門のすゝめ
DYEAR=0
DGENRE=
TTITLE0=その大いなる予算の向こうへ
TTITLE1=カモン諭吉
TTITLE2=私を二郎に連れてって
TTITLE3=G
TTITLE4=ファミチキ
TTITLE5=どうとくのうた
TTITLE6=おこりマスター
TTITLE7=真夜中の決闘
EXTD=
EXTT0=
EXTT1=
EXTT2=
EXTT3=
EXTT4=
EXTT5=
EXTT6=
EXTT7=
PLAYORDER=
